# xmcd CD database file
#
# Track frame offsets:
#	150
#	29163
#	42548
#	63913
#	78541
#	91844
#	111945
#	127843
#	140734
#	163474
#
# Disc length: 2431 seconds
#
# Revision: 0
# Processed by: cddbd v1.5.1PL0 Copyright (c) Steve Scherf et al.
# Submitted via: CDex 1.51
#
DISCID=90097d0a
DTITLE=Various Artist - The Jazz Story - Jazz Innovators
DYEAR=2004
DGENRE=Jazz
TTITLE0=Miles Davis - No Blues
TTITLE1=Thelonious Monk - Straight No Chaser
TTITLE2=Dave Brubeck - In Your Own Sweet Way
TTITLE3=Dexter Gordon - Cry Me A River
TTITLE4=Charlie Parker - Ornithology (Live)
TTITLE5=Dizzy Gillespie - Night In Tunisia (Live)
TTITLE6=Oscar Peterson - Anything Goes
TTITLE7=Gerry Mulligan - Knights Of The Square Table
TTITLE8=Stan Getz - My Funny Valentine
TTITLE9=Chet Baker - Isn't It Romantic
EXTD=YEAR: 2004
EXTT0=
EXTT1=
EXTT2=
EXTT3=
EXTT4=
EXTT5=
EXTT6=
EXTT7=
EXTT8=
EXTT9=
PLAYORDER=
